{
.appVersion = "3151";
.formatVersion = 3;
DisplayStrings = (
"

HAMB/B.001 URGEÉFONTSIVQ
hamburgeéfontsiv
MAMA NABABA
01234/four.001 5/five.001 6789/nine.001 
.,;?!()&/ampersand.001 $€-
"
);
date = "2023-11-04 04:52:19 +0000";
familyName = Kamu;
fontMaster = (
{
guides = (
{
locked = 1;
pos = (-1,472);
},
{
locked = 1;
pos = (0,226);
},
{
locked = 1;
pos = (-1,321);
},
{
locked = 1;
pos = (-1,377);
}
);
id = m01;
metricValues = (
{
over = 16;
pos = 900;
},
{
over = 16;
pos = 700;
},
{
over = 16;
pos = 500;
},
{
over = -16;
},
{
over = -16;
pos = -500;
},
{
over = -16;
}
);
name = Regular;
userData = {
GSCornerRadius = 40;
};
}
);
glyphs = (
{
glyphname = A;
lastChange = "2023-12-10 19:34:12 +0000";
layers = (
{
layerId = m01;
shapes = (
{
closed = 1;
nodes = (
(629,464,l),
(651,626,o),
(578,714,o),
(429,714,cs),
(237,714,ls),
(107,714,o),
(19,626,o),
(37,464,c)
);
},
{
closed = 1;
nodes = (
(177,306,l),
(490,306,l),
(490,364,l),
(177,364,l)
);
},
{
closed = 1;
nodes = (
(36,464,l),
(126,0,l),
(206,0,l),
(206,464,l)
);
},
{
closed = 1;
nodes = (
(460,0,l),
(540,0,l),
(630,464,l),
(460,464,l)
);
}
);
width = 668;
}
);
unicode = 65;
},
{
glyphname = B;
lastChange = "2023-12-10 21:14:43 +0000";
layers = (
{
layerId = m01;
shapes = (
{
closed = 1;
nodes = (
(649,216,o),
(645,318,o),
(564,358,c),
(606,509,ls),
(640,631,o),
(535,714,o),
(422,714,cs),
(256,714,ls),
(234,714,o),
(214,712,o),
(197,707,c),
(197,713,l),
(89,698,o),
(21,618,o),
(37,502,c),
(36,502,l),
(68,202,l),
(76,89,o),
(111,8,o),
(197,-10,c),
(197,-8,l),
(214,-13,o),
(234,-15,o),
(256,-15,cs),
(422,-15,ls),
(514,-15,o),
(587,45,o),
(617,128,cs)
);
},
{
closed = 1;
nodes = (
(192,323,l),
(197,323,l),
(197,321,l),
(502,321,l),
(502,227,l),
(197,226,l),
(197,228,l),
(192,228,l)
);
},
{
closed = 1;
nodes = (
(192,473,l),
(462,472,l),
(462,377,l),
(197,377,l),
(197,379,l),
(192,379,l)
);
}
);
width = 671;
}
);
unicode = 66;
},
{
glyphname = E;
lastChange = "2023-12-10 19:46:47 +0000";
layers = (
{
layerId = m01;
shapes = (
{
closed = 1;
nodes = (
(184,306,l),
(483,306,l),
(483,364,l),
(184,364,l)
);
},
{
closed = 1;
nodes = (
(228,716,ls),
(104,716,o),
(20,632,o),
(37,502,c),
(36,502,l),
(67,202,l),
(75,74,o),
(117,-13,o),
(225,-13,cs),
(435,-13,ls),
(537,-13,o),
(572,51,o),
(598,165,cs),
(603,189,o),
(589,204,o),
(563,204,cs),
(185,205,l),
(185,465,l),
(579,465,ls),
(601,465,o),
(615,476,o),
(621,499,cs),
(622,502,ls),
(649,606,o),
(608,716,o),
(449,716,cs)
);
}
);
width = 665;
}
);
unicode = 69;
},
{
glyphname = Eacute;
lastChange = "2023-12-10 19:46:40 +0000";
layers = (
{
layerId = m01;
shapes = (
{
closed = 1;
nodes = (
(434,798,ls),
(459,803,o),
(473,820,o),
(464,845,cs),
(450,886,o),
(416,902,o),
(368,893,cs),
(289,876,ls),
(247,867,o),
(221,838,o),
(221,795,cs),
(222,768,o),
(243,758,o),
(268,763,cs)
);
},
{
closed = 1;
nodes = (
(184,306,l),
(483,306,l),
(483,364,l),
(184,364,l)
);
},
{
closed = 1;
nodes = (
(228,716,ls),
(104,716,o),
(20,632,o),
(37,502,c),
(36,502,l),
(67,202,l),
(75,74,o),
(117,-13,o),
(225,-13,cs),
(435,-13,ls),
(537,-13,o),
(572,51,o),
(598,165,cs),
(603,189,o),
(589,204,o),
(563,204,cs),
(185,205,l),
(185,465,l),
(579,465,ls),
(601,465,o),
(615,476,o),
(621,499,cs),
(622,502,ls),
(649,606,o),
(608,716,o),
(449,716,cs)
);
}
);
width = 665;
}
);
unicode = 201;
},
{
glyphname = F;
lastChange = "2023-12-10 19:38:08 +0000";
layers = (
{
layerId = m01;
shapes = (
{
closed = 1;
nodes = (
(42,466,l),
(132,0,l),
(212,0,l),
(212,466,l)
);
},
{
closed = 1;
nodes = (
(234,716,ls),
(94,715,o),
(19,632,o),
(38,501,cs),
(42,464,l),
(570,464,ls),
(594,464,o),
(610,475,o),
(614,499,cs),
(638,624,o),
(585,718,o),
(421,717,cs)
);
},
{
closed = 1;
nodes = (
(183,306,l),
(451,306,l),
(451,364,l),
(183,364,l)
);
}
);
width = 654;
}
);
unicode = 70;
},
{
glyphname = G;
lastChange = "2023-12-10 19:31:22 +0000";
layers = (
{
layerId = m01;
shapes = (
{
closed = 1;
nodes = (
(515,204,l),
(192,204,l),
(192,464,l),
(605,464,ls),
(628,464,o),
(643,475,o),
(649,498,cs),
(650,501,ls),
(678,605,o),
(635,715,o),
(469,715,cs),
(237,715,ls),
(107,715,o),
(19,631,o),
(37,501,c),
(36,501,l),
(68,201,l),
(77,73,o),
(121,-14,o),
(234,-14,cs),
(454,-14,ls),
(561,-14,o),
(598,50,o),
(625,164,cs),
(648,260,ls),
(662,320,o),
(642,364,o),
(582,364,cs),
(347,364,l),
(347,306,l),
(515,306,l)
);
}
);
width = 690;
}
);
unicode = 71;
},
{
glyphname = H;
lastChange = "2023-12-10 19:35:13 +0000";
layers = (
{
layerId = m01;
shapes = (
{
closed = 1;
nodes = (
(234,374,l),
(234,696,l),
(127,700,o),
(19,614,o),
(45,500,cs),
(159,0,l),
(234,0,l),
(234,296,l)
);
},
{
closed = 1;
nodes = (
(501,0,l),
(576,0,l),
(690,500,ls),
(716,614,o),
(608,700,o),
(501,696,c),
(501,374,l),
(501,296,l)
);
},
{
closed = 1;
nodes = (
(226,306,l),
(507,306,l),
(507,364,l),
(226,364,l)
);
}
);
width = 735;
}
);
unicode = 72;
},
{
glyphname = I;
lastChange = "2023-12-10 19:56:28 +0000";
layers = (
{
layerId = m01;
shapes = (
{
closed = 1;
nodes = (
(255,669,o),
(232,700,o),
(195,712,cs),
(180,715,o),
(162,717,o),
(144,717,cs),
(126,717,o),
(108,715,o),
(93,712,cs),
(56,700,o),
(33,669,o),
(35,639,cs),
(36,630,o),
(124,2,o),
(124,0,c),
(164,0,l),
(164,2,o),
(252,630,o),
(253,639,cs)
);
}
);
width = 288;
}
);
unicode = 73;
},
{
glyphname = J;
lastChange = "2023-12-09 20:27:44 +0000";
layers = (
{
layerId = m01;
shapes = (
{
closed = 1;
nodes = (
(-54,71,o),
(21,1,o),
(130,1,cs),
(243,1,ls),
(369,1,o),
(431,71,o),
(412,201,c),
(-38,201,l)
);
},
{
closed = 1;
nodes = (
(301,691,l),
(242,691,l),
(242,201,l),
(412,201,l)
);
}
);
width = 455;
}
);
unicode = 74;
},
{
glyphname = L;
lastChange = "2023-12-08 21:39:29 +0000";
layers = (
{
layerId = m01;
shapes = (
{
closed = 1;
nodes = (
(44,200,l),
(22,70,o),
(95,0,o),
(244,0,cs),
(376,0,ls),
(506,0,o),
(594,70,o),
(576,200,c)
);
},
{
closed = 1;
nodes = (
(214,200,l),
(214,700,l),
(155,700,l),
(44,200,l)
);
}
);
width = 618;
}
);
unicode = 76;
},
{
glyphname = M;
lastChange = "2023-12-10 19:33:53 +0000";
layers = (
{
layerId = m01;
shapes = (
{
closed = 1;
nodes = (
(780,465,l),
(809,627,o),
(715,716,o),
(531,716,cs),
(292,716,ls),
(129,716,o),
(20,627,o),
(41,465,c)
);
},
{
closed = 1;
nodes = (
(41,465,l),
(131,0,l),
(211,0,l),
(211,465,l)
);
},
{
closed = 1;
nodes = (
(382,466,l),
(382,0,l),
(440,0,l),
(440,466,l)
);
},
{
closed = 1;
nodes = (
(611,0,l),
(691,0,l),
(781,465,l),
(611,465,l)
);
}
);
width = 817;
}
);
unicode = 77;
},
{
glyphname = N;
lastChange = "2023-12-10 19:36:06 +0000";
layers = (
{
layerId = m01;
shapes = (
{
closed = 1;
nodes = (
(629,464,l),
(651,626,o),
(578,714,o),
(429,714,cs),
(237,714,ls),
(107,714,o),
(19,626,o),
(37,464,c)
);
},
{
closed = 1;
nodes = (
(36,464,l),
(126,0,l),
(206,0,l),
(206,464,l)
);
},
{
closed = 1;
nodes = (
(460,0,l),
(540,0,l),
(630,464,l),
(460,464,l)
);
}
);
width = 668;
}
);
unicode = 78;
},
{
glyphname = O;
lastChange = "2023-12-10 19:20:03 +0000";
layers = (
{
layerId = m01;
shapes = (
{
closed = 1;
nodes = (
(502,204,l),
(192,204,l),
(192,464,l),
(502,464,l)
);
},
{
closed = 1;
nodes = (
(237,715,l),
(107,715,o),
(19,631,o),
(37,501,c),
(36,501,l),
(68,201,l),
(77,73,o),
(121,-14,o),
(234,-14,c),
(460,-14,l),
(573,-14,o),
(617,73,o),
(626,201,c),
(658,501,l),
(657,501,l),
(675,631,o),
(587,715,o),
(457,715,c)
);
}
);
width = 694;
}
);
unicode = 79;
},
{
glyphname = Q;
lastChange = "2023-12-11 03:16:15 +0000";
layers = (
{
layerId = m01;
shapes = (
{
closed = 1;
nodes = (
(17,630,o)
);
}
);
width = 669;
}
);
unicode = 81;
},
{
glyphname = S;
lastChange = "2023-12-10 19:59:59 +0000";
layers = (
{
layerId = m01;
shapes = (
{
closed = 1;
nodes = (
(187,364,l),
(187,463,l),
(542,464,ls),
(568,464,o),
(583,476,o),
(588,499,cs),
(589,502,ls),
(614,606,o),
(575,716,o),
(415,716,cs),
(230,716,ls),
(105,716,o),
(20,632,o),
(37,502,c),
(36,502,l),
(76,341,ls),
(82,318,o),
(98,306,o),
(123,306,cs),
(503,306,l),
(503,204,l),
(129,204,ls),
(101,204,o),
(86,188,o),
(90,161,cs),
(104,57,o),
(130,-13,o),
(227,-13,cs),
(430,-13,ls),
(540,-13,o),
(572,78,o),
(599,206,cs),
(613,269,ls),
(622,312,o),
(593,363,o),
(551,365,c)
);
}
);
width = 650;
}
);
unicode = 83;
},
{
glyphname = T;
lastChange = "2023-12-10 19:32:23 +0000";
layers = (
{
layerId = m01;
shapes = (
{
closed = 1;
nodes = (
(209,513,l),
(277,-1,l),
(324,-1,l),
(389,513,l)
);
},
{
closed = 1;
nodes = (
(556,464,ls),
(581,464,o),
(596,477,o),
(598,503,cs),
(603,641,o),
(531,715,o),
(394,715,cs),
(202,715,ls),
(83,715,o),
(-1,641,o),
(0,503,cs),
(0,477,o),
(16,464,o),
(41,464,cs)
);
}
);
width = 598;
}
);
unicode = 84;
},
{
glyphname = U;
lastChange = "2023-12-10 19:33:27 +0000";
layers = (
{
layerId = m01;
shapes = (
{
closed = 1;
nodes = (
(19,61,o),
(107,-16,o),
(237,-16,cs),
(429,-16,ls),
(578,-16,o),
(651,61,o),
(629,204,c),
(37,204,l)
);
},
{
closed = 1;
nodes = (
(207,204,l),
(207,700,l),
(133,700,l),
(37,204,l)
);
},
{
closed = 1;
nodes = (
(532,700,l),
(459,700,l),
(459,204,l),
(629,204,l)
);
}
);
width = 668;
}
);
unicode = 85;
},
{
glyphname = W;
lastChange = "2023-12-08 22:02:38 +0000";
layers = (
{
layerId = m01;
shapes = (
{
closed = 1;
nodes = (
(457,701,l),
(387,701,l),
(387,223,l),
(457,223,l)
);
},
{
closed = 1;
nodes = (
(30,70,o),
(139,-14,o),
(303,-14,cs),
(542,-14,ls),
(727,-14,o),
(820,70,o),
(791,226,c),
(52,226,l)
);
},
{
closed = 1;
nodes = (
(222,701,l),
(143,701,l),
(52,226,l),
(222,226,l)
);
},
{
closed = 1;
nodes = (
(791,225,l),
(700,701,l),
(621,701,l),
(621,225,l)
);
}
);
width = 827;
}
);
unicode = 87;
},
{
glyphname = B.001;
lastChange = "2023-12-10 21:10:38 +0000";
layers = (
{
layerId = m01;
shapes = (
{
closed = 1;
nodes = (
(192,472,l),
(471,472,l),
(471,377,l),
(192,377,l)
);
},
{
closed = 1;
nodes = (
(68,200,l),
(77,72,o),
(121,-15,o),
(234,-15,cs),
(444,-15,ls),
(559,-15,o),
(605,74,o),
(625,204,c),
(635,267,ls),
(642,310,o),
(614,350,o),
(570,350,c),
(610,500,ls),
(637,601,o),
(595,714,o),
(429,714,cs),
(237,714,ls),
(107,714,o),
(19,630,o),
(37,500,c),
(36,500,l)
);
},
{
closed = 1;
nodes = (
(192,321,l),
(521,321,l),
(521,226,l),
(192,226,l)
);
}
);
width = 671;
}
);
},
{
glyphname = a;
lastChange = "2023-12-11 03:17:22 +0000";
layers = (
{
layerId = m01;
shapes = (
{
closed = 1;
nodes = (
(449,365,l),
(463,463,o),
(401,514,o),
(310,514,c),
(178,514,l),
(74,514,o),
(23,463,o),
(38,365,c),
(44,327,l),
(442,327,l)
);
},
{
closed = 1;
nodes = (
(339,327,l),
(339,220,l),
(339,145,l),
(147,144,l),
(147,229,l),
(340,229,l),
(340,274,l),
(97,274,ls),
(53,274,o),
(39,242,o),
(49,198,cs),
(66,125,ls),
(85,45,o),
(114,-14,o),
(191,-14,cs),
(281,-14,ls),
(355,-14,o),
(392,40,o),
(405,115,cs),
(441,327,l)
);
}
);
width = 486;
}
);
unicode = 97;
},
{
glyphname = m;
lastChange = "2023-12-10 10:16:18 +0000";
layers = (
{
layerId = m01;
shapes = (
{
closed = 1;
nodes = (
(416,328,l),
(416,0,l),
(468,0,l),
(529,332,ls),
(551,450,o),
(486,514,o),
(363,514,cs),
(204,514,ls),
(95,514,o),
(22,450,o),
(37,332,c),
(97,0,l),
(150,0,l),
(150,328,l),
(260,328,l),
(260,0,l),
(306,0,l),
(306,328,l)
);
}
);
width = 568;
}
);
unicode = 109;
},
{
glyphname = n;
lastChange = "2023-12-10 10:19:21 +0000";
layers = (
{
layerId = m01;
shapes = (
{
closed = 1;
nodes = (
(451,337,l),
(466,456,o),
(415,519,o),
(311,519,cs),
(176,519,ls),
(85,519,o),
(24,456,o),
(36,337,c)
);
},
{
closed = 1;
nodes = (
(35,340,l),
(94,0,l),
(147,0,l),
(147,340,l)
);
},
{
closed = 1;
nodes = (
(339,0,l),
(392,0,l),
(451,340,l),
(339,340,l)
);
}
);
width = 489;
}
);
unicode = 110;
},
{
glyphname = o;
lastChange = "2023-12-10 09:12:04 +0000";
layers = (
{
layerId = m01;
shapes = (
{
closed = 1;
nodes = (
(53,97,l),
(63,18,o),
(96,-17,o),
(173,-17,cs),
(289,-17,ls),
(367,-17,o),
(396,18,o),
(409,97,cs),
(453,362,ls),
(469,461,o),
(415,514,o),
(303,514,cs),
(161,514,ls),
(64,514,o),
(-3,461,o),
(12,362,cs)
);
},
{
closed = 1;
nodes = (
(118,321,l),
(345,321,l),
(345,136,l),
(118,136,l)
);
}
);
width = 466;
}
);
unicode = 111;
},
{
glyphname = u;
lastChange = "2023-12-10 10:19:32 +0000";
layers = (
{
layerId = m01;
shapes = (
{
closed = 1;
nodes = (
(24,40,o),
(85,-23,o),
(176,-23,cs),
(311,-23,ls),
(415,-23,o),
(466,40,o),
(451,159,c),
(36,159,l)
);
},
{
closed = 1;
nodes = (
(147,498,l),
(94,498,l),
(35,157,l),
(147,157,l)
);
},
{
closed = 1;
nodes = (
(451,157,l),
(392,498,l),
(339,498,l),
(339,157,l)
);
}
);
width = 489;
}
);
unicode = 117;
},
{
glyphname = zero;
lastChange = "2023-12-10 18:29:42 +0000";
layers = (
{
layerId = m01;
shapes = (
{
closed = 1;
nodes = (
(451,204,l),
(175,204,l),
(175,464,l),
(451,464,l)
);
},
{
closed = 1;
nodes = (
(215,715,l),
(99,715,o),
(21,631,o),
(37,501,c),
(36,501,l),
(65,201,l),
(73,73,o),
(112,-14,o),
(213,-14,c),
(414,-14,l),
(515,-14,o),
(554,73,o),
(562,201,c),
(590,501,l),
(606,631,o),
(527,715,o),
(411,715,c)
);
}
);
width = 627;
}
);
unicode = 48;
},
{
glyphname = one;
lastChange = "2023-12-10 19:30:27 +0000";
layers = (
{
layerId = m01;
shapes = (
{
closed = 1;
nodes = (
(469,464,l),
(491,626,o),
(418,714,o),
(269,714,cs),
(237,714,ls),
(118,714,o),
(34,640,o),
(35,503,cs),
(35,477,o),
(51,464,o),
(76,464,cs)
);
},
{
closed = 1;
nodes = (
(298,0,l),
(378,0,l),
(468,464,l),
(298,464,l)
);
}
);
width = 508;
}
);
unicode = 49;
},
{
glyphname = two;
lastChange = "2023-12-10 20:59:44 +0000";
layers = (
{
layerId = m01;
shapes = (
{
closed = 1;
nodes = (
(219,714,ls),
(74,714,o),
(40,609,o),
(62,509,cs),
(67,484,o),
(81,473,o),
(104,473,cs),
(425,472,l),
(425,377,l),
(117,378,ls),
(94,378,o),
(80,366,o),
(75,344,cs),
(40,190,l),
(24,65,o),
(111,-15,o),
(224,-15,cs),
(390,-15,ls),
(535,-15,o),
(569,90,o),
(547,190,cs),
(542,215,o),
(528,226,o),
(505,226,cs),
(184,227,l),
(184,321,l),
(492,321,ls),
(515,321,o),
(529,333,o),
(534,355,cs),
(569,509,l),
(585,634,o),
(498,714,o),
(385,714,cs)
);
}
);
width = 616;
}
);
unicode = 50;
},
{
glyphname = three;
lastChange = "2023-12-10 21:15:17 +0000";
layers = (
{
layerId = m01;
shapes = (
{
closed = 1;
nodes = (
(587,318,o),
(506,358,c),
(548,509,ls),
(582,631,o),
(477,714,o),
(364,714,cs),
(198,714,ls),
(53,714,o),
(19,609,o),
(41,509,cs),
(46,484,o),
(60,473,o),
(83,473,cs),
(404,472,l),
(404,377,l),
(139,377,l),
(139,321,l),
(404,321,l),
(404,227,l),
(83,226,l),
(60,226,o),
(46,215,o),
(41,190,cs),
(19,90,o),
(53,-15,o),
(198,-15,cs),
(364,-15,ls),
(456,-15,o),
(529,45,o),
(559,128,cs),
(591,216,o)
);
}
);
width = 613;
}
);
unicode = 51;
},
{
glyphname = four;
lastChange = "2023-12-10 19:00:58 +0000";
layers = (
{
layerId = m01;
shapes = (
{
closed = 1;
nodes = (
(39,324,l),
(17,182,o),
(85,106,o),
(225,106,cs),
(405,106,ls),
(528,106,o),
(611,182,o),
(594,324,c)
);
},
{
closed = 1;
nodes = (
(404,0,l),
(476,0,l),
(476,380,l),
(404,380,l)
);
},
{
closed = 1;
nodes = (
(208,700,l),
(36,321,l),
(217,321,l),
(312,700,l)
);
}
);
width = 631;
}
);
unicode = 52;
},
{
glyphname = five;
lastChange = "2023-12-10 21:05:58 +0000";
layers = (
{
layerId = m01;
shapes = (
{
closed = 1;
nodes = (
(108,714,o),
(21,634,o),
(37,509,c),
(72,355,ls),
(77,333,o),
(91,321,o),
(114,321,cs),
(422,321,l),
(422,227,l),
(101,226,ls),
(78,226,o),
(64,215,o),
(59,190,cs),
(37,90,o),
(71,-15,o),
(216,-15,cs),
(382,-15,ls),
(495,-15,o),
(582,65,o),
(566,190,c),
(531,344,ls),
(526,366,o),
(512,378,o),
(489,378,cs),
(181,377,l),
(181,472,l),
(502,473,ls),
(525,473,o),
(539,484,o),
(544,509,cs),
(566,609,o),
(532,714,o),
(387,714,cs),
(221,714,ls)
);
}
);
width = 613;
}
);
unicode = 53;
},
{
glyphname = six;
lastChange = "2023-12-10 21:42:34 +0000";
layers = (
{
layerId = m01;
shapes = (
{
closed = 1;
nodes = (
(443,320,l),
(443,226,l),
(177,226,l),
(177,320,l)
);
},
{
closed = 1;
nodes = (
(177,376,l),
(177,472,l),
(479,473,ls),
(503,473,o),
(518,485,o),
(523,508,cs),
(547,611,o),
(510,714,o),
(360,714,cs),
(217,714,ls),
(100,714,o),
(21,630,o),
(37,500,c),
(36,500,l),
(65,200,ls),
(77,72,o),
(113,-15,o),
(215,-15,cs),
(404,-15,ls),
(497,-15,o),
(529,75,o),
(552,204,cs),
(565,277,ls),
(573,320,o),
(557,375,o),
(507,375,cs)
);
}
);
width = 592;
}
);
unicode = 54;
},
{
glyphname = seven;
lastChange = "2023-12-10 20:14:12 +0000";
layers = (
{
layerId = m01;
shapes = (
{
closed = 1;
nodes = (
(189,715,ls),
(23,715,o),
(-19,602,o),
(8,501,cs),
(8,500,ls),
(14,476,o),
(28,466,o),
(52,466,cs),
(344,465,l),
(219,0,l),
(297,0,l),
(512,501,l),
(539,602,o),
(483,715,o),
(317,715,cs)
);
}
);
width = 553;
}
);
unicode = 55;
},
{
glyphname = eight;
lastChange = "2023-12-10 21:42:52 +0000";
layers = (
{
layerId = m01;
shapes = (
{
closed = 1;
nodes = (
(448,378,l),
(200,378,l),
(200,472,l),
(448,473,l)
);
},
{
closed = 1;
nodes = (
(81,45,o),
(150,-15,o),
(238,-15,cs),
(409,-15,o),
(421,-13,o),
(433,-12,cs),
(509,-3,o),
(569,54,o),
(595,129,cs),
(625,217,o),
(622,319,o),
(545,359,c),
(585,510,ls),
(617,632,o),
(517,715,o),
(410,715,cs),
(240,715,o),
(227,714,o),
(217,713,cs),
(118,703,o),
(33,623,o),
(63,509,cs),
(103,358,l),
(26,318,o),
(22,216,o),
(53,128,cs)
);
},
{
closed = 1;
nodes = (
(200,321,l),
(448,321,l),
(448,228,l),
(200,227,l)
);
}
);
width = 648;
}
);
unicode = 56;
},
{
glyphname = nine;
lastChange = "2023-12-10 21:33:41 +0000";
layers = (
{
layerId = m01;
shapes = (
{
closed = 1;
nodes = (
(169,379,l),
(169,473,l),
(445,473,l),
(445,379,l)
);
},
{
closed = 1;
nodes = (
(445,323,l),
(445,227,l),
(113,227,ls),
(89,227,o),
(74,215,o),
(69,192,cs),
(45,89,o),
(82,-15,o),
(232,-15,cs),
(405,-15,ls),
(522,-15,o),
(601,69,o),
(585,199,c),
(586,199,l),
(557,499,ls),
(545,627,o),
(509,714,o),
(407,714,cs),
(208,714,ls),
(105,714,o),
(73,624,o),
(50,495,cs),
(37,422,ls),
(29,379,o),
(45,324,o),
(95,324,cs)
);
}
);
width = 588;
}
);
unicode = 57;
},
{
glyphname = four.001;
layers = (
{
layerId = m01;
shapes = (
{
closed = 1;
nodes = (
(39,324,l),
(17,182,o),
(85,106,o),
(225,106,cs),
(405,106,ls),
(528,106,o),
(611,182,o),
(594,324,c)
);
},
{
closed = 1;
nodes = (
(404,0,l),
(476,0,l),
(476,380,l),
(404,380,l)
);
},
{
closed = 1;
nodes = (
(208,700,l),
(36,321,l),
(217,321,l),
(312,700,l)
);
}
);
width = 631;
}
);
},
{
glyphname = five.001;
lastChange = "2023-12-10 21:40:28 +0000";
layers = (
{
layerId = m01;
shapes = (
{
closed = 1;
nodes = (
(423,320,l),
(423,226,l),
(108,226,ls),
(81,226,o),
(66,210,o),
(70,183,cs),
(86,74,o),
(125,-15,o),
(215,-15,cs),
(384,-15,ls),
(487,-15,o),
(519,75,o),
(542,204,cs),
(555,277,ls),
(563,320,o),
(547,375,o),
(497,375,cs),
(179,377,l),
(179,472,l),
(500,473,ls),
(523,473,o),
(537,484,o),
(542,509,cs),
(564,609,o),
(530,714,o),
(385,714,cs),
(219,714,ls),
(106,714,o),
(19,634,o),
(35,509,c),
(70,355,ls),
(75,333,o),
(89,321,o),
(112,321,cs)
);
}
);
width = 613;
}
);
},
{
glyphname = nine.001;
layers = (
{
layerId = m01;
shapes = (
{
closed = 1;
nodes = (
(383,464,l),
(352,364,l),
(182,364,l),
(182,464,l)
);
},
{
closed = 1;
nodes = (
(86,340,ls),
(92,317,o),
(107,306,o),
(130,306,cs),
(337,306,l),
(254,-1,l),
(332,-1,l),
(547,500,l),
(574,601,o),
(518,714,o),
(352,714,cs),
(224,714,ls),
(58,714,o),
(16,601,o),
(43,500,cs)
);
}
);
width = 588;
}
);
},
{
glyphname = period;
lastChange = "2023-12-09 20:32:26 +0000";
layers = (
{
layerId = m01;
shapes = (
{
closed = 1;
nodes = (
(79,204,ls),
(51,204,o),
(31,177,o),
(36,141,cs),
(54,22,ls),
(58,-1,o),
(73,-16,o),
(92,-16,cs),
(205,-16,ls),
(224,-16,o),
(238,0,o),
(242,22,cs),
(262,138,ls),
(268,174,o),
(248,204,o),
(219,204,cs)
);
}
);
width = 298;
}
);
unicode = 46;
},
{
glyphname = comma;
lastChange = "2023-12-09 20:32:16 +0000";
layers = (
{
layerId = m01;
shapes = (
{
closed = 1;
nodes = (
(202,-166,l),
(238,9,l),
(119,8,l),
(120,-166,l)
);
},
{
closed = 1;
nodes = (
(79,204,ls),
(51,204,o),
(31,177,o),
(36,141,cs),
(54,22,ls),
(57,-1,o),
(73,-16,o),
(92,-16,cs),
(205,-16,ls),
(224,-16,o),
(238,0,o),
(242,22,cs),
(262,138,ls),
(268,174,o),
(248,204,o),
(219,204,cs)
);
}
);
width = 298;
}
);
unicode = 44;
},
{
glyphname = semicolon;
lastChange = "2023-12-09 20:32:08 +0000";
layers = (
{
layerId = m01;
shapes = (
{
closed = 1;
nodes = (
(202,-166,l),
(238,9,l),
(119,8,l),
(120,-166,l)
);
},
{
closed = 1;
nodes = (
(79,204,ls),
(51,204,o),
(31,177,o),
(36,141,cs),
(54,22,ls),
(57,-1,o),
(73,-16,o),
(92,-16,cs),
(205,-16,ls),
(224,-16,o),
(238,0,o),
(242,22,cs),
(262,138,ls),
(268,174,o),
(248,204,o),
(219,204,cs)
);
},
{
closed = 1;
nodes = (
(83,714,ls),
(55,714,o),
(35,687,o),
(40,651,cs),
(58,532,ls),
(62,509,o),
(77,494,o),
(96,494,cs),
(209,494,ls),
(228,494,o),
(242,510,o),
(246,532,cs),
(266,648,ls),
(272,684,o),
(252,714,o),
(223,714,cs)
);
}
);
width = 302;
}
);
unicode = 59;
},
{
glyphname = exclam;
lastChange = "2023-12-09 20:31:48 +0000";
layers = (
{
layerId = m01;
shapes = (
{
closed = 1;
nodes = (
(173,208,l),
(199,392,o),
(252,633,o),
(253,639,cs),
(255,669,o),
(232,700,o),
(195,712,cs),
(180,715,o),
(162,717,o),
(144,717,cs),
(126,717,o),
(108,715,o),
(93,712,cs),
(56,700,o),
(33,669,o),
(35,639,cs),
(36,633,o),
(89,392,o),
(115,208,c)
);
},
{
closed = 1;
nodes = (
(88,157,ls),
(66,157,o),
(50,136,o),
(54,107,cs),
(68,14,ls),
(71,-4,o),
(83,-16,o),
(98,-16,cs),
(187,-16,ls),
(202,-16,o),
(213,-3,o),
(216,14,cs),
(232,105,ls),
(237,133,o),
(221,157,o),
(198,157,cs)
);
}
);
width = 288;
}
);
unicode = 33;
},
{
glyphname = question;
lastChange = "2023-12-09 20:32:03 +0000";
layers = (
{
layerId = m01;
shapes = (
{
closed = 1;
nodes = (
(517,321,l),
(532,328,o),
(544,373,o),
(577,502,cs),
(604,606,o),
(542,717,o),
(376,717,cs),
(242,717,ls),
(76,717,o),
(14,606,o),
(41,502,cs),
(44,489,o),
(47,475,o),
(50,465,c),
(418,464,l),
(418,321,l)
);
},
{
closed = 1;
nodes = (
(318,321,l),
(515,321,l),
(515,380,l),
(318,380,l)
);
},
{
closed = 1;
nodes = (
(208,157,ls),
(186,157,o),
(170,136,o),
(174,107,cs),
(188,14,ls),
(191,-4,o),
(203,-16,o),
(218,-16,cs),
(307,-16,ls),
(322,-16,o),
(333,-3,o),
(336,14,cs),
(352,105,ls),
(357,133,o),
(341,157,o),
(318,157,cs)
);
},
{
closed = 1;
nodes = (
(318,208,l),
(318,381,l),
(229,381,ls),
(200,381,o),
(180,357,o),
(186,329,cs),
(210,208,l)
);
}
);
width = 618;
}
);
unicode = 63;
},
{
glyphname = ampersand;
lastChange = "2023-12-10 21:26:34 +0000";
layers = (
{
layerId = m01;
shapes = (
{
closed = 1;
nodes = (
(26,358,o),
(22,216,o),
(54,128,cs),
(84,45,o),
(-33,-15,o),
(69,-15,cs),
(415,-15,ls),
(560,-15,o),
(594,90,o),
(572,190,cs),
(567,215,o),
(553,226,o),
(530,226,cs),
(209,227,l),
(209,321,l),
(640,321,l),
(640,377,l),
(209,377,l),
(209,472,l),
(530,473,ls),
(553,473,o),
(567,484,o),
(572,509,cs),
(594,609,o),
(560,714,o),
(415,714,cs),
(249,714,ls),
(136,714,o),
(14,629,o),
(55,509,cs),
(107,358,l)
);
},
{
closed = 1;
nodes = (
(452,431,l),
(452,205,l),
(576,170,l),
(579,431,l)
);
},
{
closed = 1;
nodes = (
(65,356,ls),
(30,354,o),
(20,313,o),
(22,239,cs),
(30,-15,l),
(144,360,l)
);
}
);
width = 639;
}
);
unicode = 38;
},
{
glyphname = ampersand.001;
layers = (
{
layerId = m01;
shapes = (
{
closed = 1;
nodes = (
(205,321,l),
(450,321,l),
(450,205,l),
(205,205,l)
);
},
{
closed = 1;
nodes = (
(52,205,l),
(60,157,ls),
(78,50,o),
(129,-15,o),
(230,-15,cs),
(390,-15,ls),
(495,-15,o),
(534,55,o),
(535,170,cs),
(536,321,l),
(599,321,l),
(599,380,l),
(535,380,l),
(535,429,l),
(453,429,l),
(453,380,l),
(205,380,l),
(205,464,l),
(473,465,l),
(482,502,ls),
(507,606,o),
(460,717,o),
(294,717,cs),
(247,717,ls),
(81,717,o),
(19,606,o),
(46,502,cs),
(79,373,o),
(91,358,o),
(106,351,c),
(62,351,o),
(35,311,o),
(42,268,cs)
);
}
);
width = 639;
}
);
},
{
glyphname = euro;
lastChange = "2023-12-10 19:50:30 +0000";
layers = (
{
layerId = m01;
shapes = (
{
closed = 1;
nodes = (
(15,359,l),
(602,359,l),
(602,418,l),
(15,418,l)
);
},
{
closed = 1;
nodes = (
(15,260,l),
(602,260,l),
(602,319,l),
(15,319,l)
);
},
{
closed = 1;
nodes = (
(258,716,ls),
(134,716,o),
(50,632,o),
(67,502,c),
(66,502,l),
(97,202,l),
(105,74,o),
(147,-13,o),
(255,-13,cs),
(465,-13,ls),
(567,-13,o),
(602,51,o),
(628,165,cs),
(633,189,o),
(619,204,o),
(593,204,cs),
(215,205,l),
(215,465,l),
(609,465,ls),
(631,465,o),
(645,476,o),
(651,499,cs),
(652,502,ls),
(679,606,o),
(638,716,o),
(479,716,cs)
);
}
